<svg width="145" height="17" viewBox="0 0 145 17" fill="none" xmlns="http://www.w3.org/2000/svg">
<path d="M0.117188 16.0954V0.119141H7.42129L13.2557 8.10725L19.1012 0.119141H26.3942V16.0954H20.5598V7.57234L14.7143 16.0954H11.7971L5.95156 7.57234V16.0954H0.117188Z" fill="#090909"/>
<path d="M29.8013 0.119141H35.6356V16.0954H29.8013V0.119141Z" fill="#090909"/>
<path d="M53.328 8.58274V0.119141H59.1736V16.0954H52.6043L44.5653 6.33608V16.0954H38.731V0.119141H46.7588L53.328 8.58274Z" fill="#090909"/>
<path d="M62.5807 16.1191V0.142915H80.0949V4.23207H68.415V6.27664H80.0949V9.97352H68.415V12.0181H80.0949V16.1191H62.5807Z" fill="#090909"/>
<path d="M83.2014 0.131028H97.6203C100.705 0.0953665 103.321 2.86505 103.277 6.16966C103.277 7.37025 102.976 8.46387 102.375 9.43861C101.785 10.4015 100.994 11.1385 100.014 11.6258L103.277 16.1073H97.0636L94.2466 12.2083H89.0358V16.1073H83.2014V0.131028ZM96.1506 4.80265H89.0358V7.52479H96.1506C96.5069 7.52479 96.8075 7.39403 97.0525 7.13251C97.3086 6.85911 97.431 6.53816 97.431 6.16966C97.431 5.40889 96.8632 4.80265 96.1506 4.80265Z" fill="#090909"/>
<path d="M109.3 0.142915L113.865 11.2336L118.43 0.142915H125L117.328 16.1191H110.391L102.731 0.142915H109.3Z" fill="#090909"/>
<path d="M132.627 4.76699L130.567 9.48615H134.675L132.627 4.76699ZM121.125 16.1191L129.153 0.142915H136.089L144.117 16.1191H137.548L136.368 13.3851H128.874L127.694 16.1191H121.125Z" fill="#090909"/>
</svg>
